Coordinates
version=1
nRows=24
nColumns=38
inDegrees=no

Units are S.I. units (second, meters, Newtons, ...)
If the header above contains a line with 'inDegrees', this indicates whether rotational values are in degrees (yes) or radians (no).

endheader
time	pelvis_tilt	pelvis_list	pelvis_rotation	pelvis_tx	pelvis_ty	pelvis_tz	hip_flexion_r	hip_adduction_r	hip_rotation_r	knee_angle_r	ankle_angle_r	subtalar_angle_r	mtp_angle_r	hip_flexion_l	hip_adduction_l	hip_rotation_l	knee_angle_l	ankle_angle_l	subtalar_angle_l	mtp_angle_l	lumbar_extension	lumbar_bending	lumbar_rotation	arm_flex_r	arm_add_r	arm_rot_r	elbow_flex_r	pro_sup_r	wrist_flex_r	wrist_dev_r	arm_flex_l	arm_add_l	arm_rot_l	elbow_flex_l	pro_sup_l	wrist_flex_l	wrist_dev_l
2.06	0.0537403	-0.0295248	0.0034245	0.917903	1.02266	-0.314181	-0.124016	0.0462971	-0.260884	-0.526611	0.32253	0.0200204	0.000164369	0.531661	-0.145951	-0.195432	-1.56571	0.0394602	0.0206575	0.00105776	-0.286607	0.0604867	0.133115	-0.244621	-0.281327	0.0415956	2.13732	1.68492	0.0017308	0.0200989	-0.525359	-0.328121	0.0352462	2.24046	1.61548	0.0151051	0.00682351
2.07	0.0427977	-0.0142865	0.00607047	0.920442	1.02928	-0.314617	-0.170783	0.0302146	-0.26847	-0.463847	0.235702	0.0200204	0.000164369	0.55264	-0.126625	-0.210098	-1.49078	0.0426463	0.0206575	0.00105776	-0.265723	0.0416541	0.137229	-0.240931	-0.284176	0.0657132	2.17464	1.69643	0.0017308	0.0200989	-0.557619	-0.318346	0.0217099	2.25693	1.60145	0.0151051	0.00682351
2.08	0.032289	-0.000226093	0.00934937	0.92315	1.03615	-0.315235	-0.21387	0.0148361	-0.280663	-0.405163	0.13931	0.0200204	0.000164369	0.567257	-0.107009	-0.224472	-1.40609	0.0433477	0.0206575	0.00105776	-0.245622	0.024486	0.141335	-0.240527	-0.286234	0.0888751	2.21069	1.70611	0.0017308	0.0200989	-0.588615	-0.306488	0.00833971	2.27229	1.58808	0.0151051	0.00682351
2.09	0.0226435	0.0120924	0.0129821	0.925898	1.04303	-0.31601	-0.252353	0.000645496	-0.297	-0.353832	0.0390039	0.0200204	0.000164369	0.575285	-0.0875162	-0.23777	-1.31237	0.0408992	0.0206575	0.00105776	-0.227106	0.00954094	0.145704	-0.242828	-0.287531	0.110779	2.24467	1.71361	0.0017308	0.0200989	-0.617791	-0.292604	-0.00483389	2.286	1.57582	0.0151051	0.00682351
2.1	0.0142093	0.0221365	0.01657	0.928578	1.0497	-0.316883	-0.285508	-0.0119628	-0.316638	-0.31295	-0.0588169	0.0200204	0.000164369	0.576703	-0.0687431	-0.249503	-1.21066	0.0347651	0.0206575	0.00105776	-0.21075	-0.00270999	0.15046	-0.247164	-0.288167	0.131313	2.27589	1.71882	0.0017308	0.0200989	-0.644857	-0.276821	-0.0178822	2.29787	1.56489	0.0151051	0.00682351
2.11	0.00726089	0.0294671	0.0196875	0.931112	1.05598	-0.317775	-0.312925	-0.0227866	-0.338627	-0.285156	-0.147755	0.0200204	0.000164369	0.571703	-0.051378	-0.259505	-1.10244	0.0246242	0.0206575	0.00105776	-0.196956	-0.0119447	0.155616	-0.252896	-0.288273	0.150434	2.30371	1.72176	0.0017308	0.0200989	-0.669674	-0.259387	-0.0308936	2.30801	1.55524	0.0151051	0.00682351
2.12	0.00202092	0.0338302	0.0219814	0.933447	1.06168	-0.318586	-0.334553	-0.0319241	-0.362173	-0.272386	-0.222234	0.0200204	0.000164369	0.560701	-0.0360468	-0.267943	-0.989684	0.0104303	0.0206575	0.00105776	-0.185986	-0.0180776	0.161088	-0.2595	-0.287966	0.168056	2.32763	1.72254	0.0017308	0.0200989	-0.69217	-0.240697	-0.0439198	2.3167	1.54668	0.0151051	0.00682351
2.13	-0.00133814	0.035262	0.0232489	0.935562	1.06665	-0.319248	-0.35068	-0.0398327	-0.386796	-0.275721	-0.278202	0.0200204	0.000164369	0.544349	-0.0231661	-0.275275	-0.874887	-0.00754568	0.0206575	0.00105776	-0.177979	-0.0213349	0.166675	-0.266621	-0.287313	0.183975	2.34722	1.72136	0.0017308	0.0200989	-0.712261	-0.221295	-0.0569528	2.32432	1.53892	0.0151051	0.00682351
2.14	-0.0027172	0.0341475	0.0234898	0.937464	1.07079	-0.319732	-0.361836	-0.0473091	-0.412294	-0.295365	-0.313559	0.0200204	0.000164369	0.52352	-0.0128344	-0.282147	-0.761012	-0.0286929	0.0206575	0.00105776	-0.172954	-0.0222724	0.172058	-0.274092	-0.286313	0.197829	2.36217	1.7185	0.0017308	0.0200989	-0.729821	-0.201845	-0.0699197	2.33125	1.53167	0.0151051	0.00682351
2.15	-0.0021125	0.0312012	0.0229229	0.939183	1.07403	-0.320052	-0.368675	-0.0553704	-0.438564	-0.330695	-0.328252	0.0200204	0.000164369	0.499285	-0.00479127	-0.289206	-0.651356	-0.0520725	0.0206575	0.00105776	-0.170809	-0.0217255	0.176798	-0.281929	-0.284909	0.209118	2.37228	1.71435	0.0017308	0.0200989	-0.744667	-0.18309	-0.0826851	2.33775	1.52472	0.0151051	0.00682351
2.16	0.00037275	0.0273681	0.0219625	0.940746	1.07632	-0.320233	-0.371844	-0.0650581	-0.465331	-0.380404	-0.324064	0.0200204	0.000164369	0.472857	0.00154513	-0.296855	-0.549353	-0.0764751	0.0206575	0.00105776	-0.171307	-0.0206824	0.180371	-0.290295	-0.283003	0.217263	2.37748	1.70937	0.0017308	0.0200989	-0.756566	-0.165795	-0.0950567	2.34395	1.51803	0.0151051	0.00682351
2.17	0.00453705	0.0236604	0.021152	0.942162	1.07765	-0.320318	-0.371863	-0.0772137	-0.491954	-0.44269	-0.304191	0.0200204	0.000164369	0.445518	0.00697389	-0.305	-0.458329	-0.100522	0.0206575	0.00105776	-0.174088	-0.0201283	0.182233	-0.299457	-0.280494	0.221698	2.37782	1.70404	0.0017308	0.0200989	-0.765257	-0.150696	-0.106794	2.3498	1.51166	0.0151051	0.00682351
2.18	0.0100854	0.0209716	0.021071	0.943448	1.07801	-0.320367	-0.369041	-0.0922962	-0.517354	-0.515493	-0.272694	0.0200204	0.000164369	0.418532	0.0123705	-0.312887	-0.381246	-0.122774	0.0206575	0.00105776	-0.178714	-0.0208914	0.181899	-0.309715	-0.277312	0.221966	2.3735	1.69878	0.0017308	0.0200989	-0.77047	-0.138452	-0.117621	2.35511	1.50575	0.0151051	0.00682351
2.19	0.0166241	0.0199384	0.0222363	0.944593	1.07738	-0.320443	-0.363445	-0.11028	-0.540127	-0.596712	-0.233925	0.0200204	0.000164369	0.393047	0.0185264	-0.319129	-0.320499	-0.141777	0.0206575	0.00105776	-0.184734	-0.0235044	0.179019	-0.321341	-0.273452	0.217803	2.36485	1.69387	0.0017308	0.0200989	-0.771957	-0.129592	-0.127245	2.35953	1.50042	0.0151051	0.00682351
2.2	0.0237122	0.0208879	0.0250183	0.945566	1.07576	-0.320606	-0.354914	-0.130657	-0.558788	-0.684368	-0.192013	0.0200204	0.000164369	0.370042	0.0260051	-0.321955	-0.277785	-0.156029	0.0206575	0.00105776	-0.191731	-0.0281177	0.173447	-0.334516	-0.268988	0.209182	2.35228	1.68948	0.0017308	0.0200989	-0.769504	-0.124477	-0.135375	2.36263	1.49573	0.0151051	0.00682351
2.21	0.0309322	0.023827	0.0295888	0.94633	1.07314	-0.320909	-0.343106	-0.15258	-0.572086	-0.776703	-0.150462	0.0200204	0.000164369	0.350304	0.0350854	-0.319668	-0.254065	-0.163898	0.0206575	0.00105776	-0.19936	-0.0345247	0.165248	-0.349287	-0.26408	0.196322	2.33627	1.68561	0.0017308	0.0200989	-0.762952	-0.123272	-0.14175	2.36391	1.49165	0.0151051	0.00682351
2.22	0.0379055	0.0284941	0.0359063	0.94684	1.0695	-0.321377	-0.32757	-0.17507	-0.579241	-0.872227	-0.11191	0.0200204	0.000164369	0.334431	0.0457741	-0.311132	-0.249604	-0.163576	0.0206575	0.00105776	-0.207376	-0.0422599	0.154679	-0.365538	-0.258943	0.179656	2.31726	1.68214	0.0017308	0.0200989	-0.752198	-0.125934	-0.146166	2.36283	1.48806	0.0151051	0.00682351
2.23	0.0442887	0.0344759	0.0437352	0.947043	1.06483	-0.322009	-0.307805	-0.197221	-0.580045	-0.969707	-0.0780218	0.0200204	0.000164369	0.322842	0.0578665	-0.296142	-0.264009	-0.153186	0.0206575	0.00105776	-0.215633	-0.050737	0.142133	-0.382984	-0.253814	0.159762	2.29564	1.67887	0.0017308	0.0200989	-0.73719	-0.13222	-0.148497	2.35884	1.48476	0.0151051	0.00682351
2.24	0.0498284	0.0412836	0.052687	0.946889	1.05911	-0.322777	-0.283296	-0.218335	-0.574788	-1.0681	-0.0495337	0.0200204	0.000164369	0.315783	0.0710256	-0.275551	-0.296221	-0.131107	0.0206575	0.00105776	-0.224046	-0.0593911	0.128064	-0.401181	-0.248904	0.137286	2.27163	1.67561	0.0017308	0.0200989	-0.717915	-0.141712	-0.148694	2.35143	1.48146	0.0151051	0.00682351
2.25	0.0543227	0.0484664	0.0622729	0.946315	1.05236	-0.323628	-0.253576	-0.237936	-0.564095	-1.16647	-0.0263814	0.0200204	0.000164369	0.313243	0.0848204	-0.251131	-0.34442	-0.0964962	0.0206575	0.00105776	-0.232577	-0.0677436	0.112913	-0.419555	-0.244368	0.112899	2.24531	1.67225	0.0017308	0.0200989	-0.694387	-0.153853	-0.14678	2.34017	1.47788	0.0151051	0.00682351
2.26	0.057659	0.0556308	0.071977	0.945257	1.04471	-0.32449	-0.218294	-0.255728	-0.548748	-1.26381	-0.00789511	0.0200204	0.000164369	0.314826	0.0987507	-0.225209	-0.405874	-0.0498036	0.0206575	0.00105776	-0.241218	-0.0754415	0.0970302	-0.43742	-0.240287	0.0872867	2.21657	1.66879	0.0017308	0.0200989	-0.666655	-0.167984	-0.142835	2.32478	1.47373	0.0151051	0.00682351
2.27	0.059828	0.06245	0.0813283	0.94366	1.03643	-0.325278	-0.177297	-0.271512	-0.529573	-1.35898	0.00698809	0.0200204	0.000164369	0.319619	0.112269	-0.200149	-0.476857	0.00699445	0.0206575	0.00105776	-0.249961	-0.0822533	0.0806058	-0.454021	-0.236664	0.0611959	2.18517	1.66535	0.0017308	0.0200989	-0.634829	-0.183389	-0.136995	2.30522	1.46876	0.0151051	0.00682351
2.28	0.0609529	0.0686642	0.0899613	0.94153	1.02793	-0.325918	-0.130704	-0.285118	-0.507407	-1.45055	0.0195072	0.0200204	0.000164369	0.326128	0.124809	-0.177843	-0.552739	0.0706271	0.0206575	0.00105776	-0.258769	-0.0880431	0.0636199	-0.468581	-0.233452	0.035496	2.15083	1.66212	0.0017308	0.0200989	-0.599146	-0.199328	-0.129465	2.28181	1.46279	0.0151051	0.00682351
2.29	0.0612488	0.0740723	0.0976429	0.938944	1.01973	-0.326368	-0.0789791	-0.296368	-0.483119	-1.53689	0.03087	0.0200204	0.000164369	0.332343	0.135797	-0.159362	-0.628342	0.137171	0.0206575	0.00105776	-0.267549	-0.0927152	0.0458434	-0.480386	-0.230593	0.0112158	2.11337	1.65933	0.0017308	0.0200989	-0.560045	-0.21506	-0.120546	2.25533	1.45576	0.0151051	0.00682351
